<mxfile host="app.diagrams.net" modified="2023-10-20T05:30:19.828Z" agent="Mozilla/5.0 (Windows NT 10.0; Win64; x64) AppleWebKit/537.36 (KHTML, like Gecko) Chrome/118.0.0.0 Safari/537.36" etag="TjX7RJbBzYVo9BSfF7sK" version="21.6.5" type="github">
  <diagram name="Page-1" id="74e2e168-ea6b-b213-b513-2b3c1d86103e">
    <mxGraphModel dx="1221" dy="737" grid="1" gridSize="10" guides="1" tooltips="1" connect="1" arrows="1" fold="1" page="1" pageScale="1" pageWidth="1100" pageHeight="850" background="none" math="0" shadow="0">
      <root>
        <mxCell id="0" />
        <mxCell id="1" parent="0" />
        <mxCell id="77e6c97f196da883-1" value="潍坊项目管理系统-验收流程" style="swimlane;html=1;childLayout=stackLayout;startSize=20;rounded=0;shadow=0;labelBackgroundColor=none;strokeWidth=1;fontFamily=Verdana;fontSize=8;align=center;" parent="1" vertex="1">
          <mxGeometry x="80" y="40" width="960" height="750" as="geometry" />
        </mxCell>
        <mxCell id="77e6c97f196da883-2" value="申报单位" style="swimlane;html=1;startSize=20;" parent="77e6c97f196da883-1" vertex="1">
          <mxGeometry y="20" width="240" height="730" as="geometry" />
        </mxCell>
        <mxCell id="iF8CZG6Vxg7Bg4vr-x2V-8" style="edgeStyle=orthogonalEdgeStyle;rounded=0;orthogonalLoop=1;jettySize=auto;html=1;exitX=0.5;exitY=1;exitDx=0;exitDy=0;" edge="1" parent="77e6c97f196da883-2" source="iF8CZG6Vxg7Bg4vr-x2V-4" target="iF8CZG6Vxg7Bg4vr-x2V-5">
          <mxGeometry relative="1" as="geometry" />
        </mxCell>
        <mxCell id="iF8CZG6Vxg7Bg4vr-x2V-4" value="验收申请" style="rounded=1;whiteSpace=wrap;html=1;" vertex="1" parent="77e6c97f196da883-2">
          <mxGeometry x="60" y="50" width="120" height="60" as="geometry" />
        </mxCell>
        <mxCell id="iF8CZG6Vxg7Bg4vr-x2V-5" value="是否包含软件开发" style="rhombus;whiteSpace=wrap;html=1;" vertex="1" parent="77e6c97f196da883-2">
          <mxGeometry x="70" y="170" width="100" height="60" as="geometry" />
        </mxCell>
        <mxCell id="iF8CZG6Vxg7Bg4vr-x2V-1" value="项目管理员" style="swimlane;html=1;startSize=20;" vertex="1" parent="77e6c97f196da883-1">
          <mxGeometry x="240" y="20" width="240" height="730" as="geometry" />
        </mxCell>
        <mxCell id="iF8CZG6Vxg7Bg4vr-x2V-11" value="验收审核" style="rounded=1;whiteSpace=wrap;html=1;" vertex="1" parent="iF8CZG6Vxg7Bg4vr-x2V-1">
          <mxGeometry x="60" y="290" width="120" height="60" as="geometry" />
        </mxCell>
        <mxCell id="iF8CZG6Vxg7Bg4vr-x2V-2" value="科室与会审人员" style="swimlane;html=1;startSize=20;" vertex="1" parent="77e6c97f196da883-1">
          <mxGeometry x="480" y="20" width="240" height="730" as="geometry" />
        </mxCell>
        <mxCell id="iF8CZG6Vxg7Bg4vr-x2V-12" style="edgeStyle=orthogonalEdgeStyle;rounded=0;orthogonalLoop=1;jettySize=auto;html=1;exitX=0.5;exitY=1;exitDx=0;exitDy=0;" edge="1" parent="iF8CZG6Vxg7Bg4vr-x2V-2" source="iF8CZG6Vxg7Bg4vr-x2V-6" target="iF8CZG6Vxg7Bg4vr-x2V-10">
          <mxGeometry relative="1" as="geometry" />
        </mxCell>
        <mxCell id="iF8CZG6Vxg7Bg4vr-x2V-6" value="数据审核" style="rounded=1;whiteSpace=wrap;html=1;" vertex="1" parent="iF8CZG6Vxg7Bg4vr-x2V-2">
          <mxGeometry x="60" y="170" width="120" height="60" as="geometry" />
        </mxCell>
        <mxCell id="iF8CZG6Vxg7Bg4vr-x2V-10" value="是否通过" style="rhombus;whiteSpace=wrap;html=1;" vertex="1" parent="iF8CZG6Vxg7Bg4vr-x2V-2">
          <mxGeometry x="70" y="290" width="100" height="60" as="geometry" />
        </mxCell>
        <mxCell id="iF8CZG6Vxg7Bg4vr-x2V-3" value="第三方评审" style="swimlane;html=1;startSize=20;" vertex="1" parent="77e6c97f196da883-1">
          <mxGeometry x="720" y="20" width="240" height="730" as="geometry" />
        </mxCell>
        <mxCell id="iF8CZG6Vxg7Bg4vr-x2V-7" style="edgeStyle=orthogonalEdgeStyle;rounded=0;orthogonalLoop=1;jettySize=auto;html=1;exitX=1;exitY=0.5;exitDx=0;exitDy=0;entryX=0;entryY=0.5;entryDx=0;entryDy=0;" edge="1" parent="77e6c97f196da883-1" source="iF8CZG6Vxg7Bg4vr-x2V-5" target="iF8CZG6Vxg7Bg4vr-x2V-6">
          <mxGeometry relative="1" as="geometry" />
        </mxCell>
        <mxCell id="iF8CZG6Vxg7Bg4vr-x2V-9" value="是" style="edgeLabel;html=1;align=center;verticalAlign=middle;resizable=0;points=[];" vertex="1" connectable="0" parent="iF8CZG6Vxg7Bg4vr-x2V-7">
          <mxGeometry x="-0.1817" y="1" relative="1" as="geometry">
            <mxPoint as="offset" />
          </mxGeometry>
        </mxCell>
        <mxCell id="iF8CZG6Vxg7Bg4vr-x2V-13" style="edgeStyle=orthogonalEdgeStyle;rounded=0;orthogonalLoop=1;jettySize=auto;html=1;exitX=0;exitY=0.5;exitDx=0;exitDy=0;entryX=1;entryY=0.5;entryDx=0;entryDy=0;" edge="1" parent="77e6c97f196da883-1" source="iF8CZG6Vxg7Bg4vr-x2V-10" target="iF8CZG6Vxg7Bg4vr-x2V-11">
          <mxGeometry relative="1" as="geometry" />
        </mxCell>
        <mxCell id="iF8CZG6Vxg7Bg4vr-x2V-14" value="是" style="edgeLabel;html=1;align=center;verticalAlign=middle;resizable=0;points=[];" vertex="1" connectable="0" parent="iF8CZG6Vxg7Bg4vr-x2V-13">
          <mxGeometry x="-0.0103" y="-2" relative="1" as="geometry">
            <mxPoint as="offset" />
          </mxGeometry>
        </mxCell>
        <mxCell id="iF8CZG6Vxg7Bg4vr-x2V-17" style="edgeStyle=orthogonalEdgeStyle;rounded=0;orthogonalLoop=1;jettySize=auto;html=1;exitX=1;exitY=0.5;exitDx=0;exitDy=0;entryX=1;entryY=0.5;entryDx=0;entryDy=0;" edge="1" parent="77e6c97f196da883-1" source="iF8CZG6Vxg7Bg4vr-x2V-10" target="iF8CZG6Vxg7Bg4vr-x2V-4">
          <mxGeometry relative="1" as="geometry" />
        </mxCell>
        <mxCell id="iF8CZG6Vxg7Bg4vr-x2V-18" value="否" style="edgeLabel;html=1;align=center;verticalAlign=middle;resizable=0;points=[];" vertex="1" connectable="0" parent="iF8CZG6Vxg7Bg4vr-x2V-17">
          <mxGeometry x="-0.472" y="-2" relative="1" as="geometry">
            <mxPoint as="offset" />
          </mxGeometry>
        </mxCell>
        <mxCell id="iF8CZG6Vxg7Bg4vr-x2V-19" value="否" style="edgeStyle=orthogonalEdgeStyle;rounded=0;orthogonalLoop=1;jettySize=auto;html=1;exitX=0.5;exitY=1;exitDx=0;exitDy=0;entryX=0;entryY=0.5;entryDx=0;entryDy=0;" edge="1" parent="77e6c97f196da883-1" source="iF8CZG6Vxg7Bg4vr-x2V-5" target="iF8CZG6Vxg7Bg4vr-x2V-11">
          <mxGeometry relative="1" as="geometry" />
        </mxCell>
      </root>
    </mxGraphModel>
  </diagram>
</mxfile>
